Coordinates
version=1
nRows=29
nColumns=30
inDegrees=yes

Units are S.I. units (second, meters, Newtons, ...)
Angles are in degrees.

endheader
time	floatyaw	floatroll	floatpitch	floatx	floaty	floatz	pro_sup_l	deviation_l	flexion_l	cmc_flexion_l	cmc_abduction_l	mp_flexion_l	ip_flexion_l	2mcp_flexion_l	2mcp_abduction_l	2pm_flexion_l	2md_flexion_l	3mcp_flexion_l	3mcp_abduction_l	3pm_flexion_l	3md_flexion_l	4mcp_flexion_l	4mcp_abduction_l	4pm_flexion_l	4md_flexion_l	5mcp_flexion_l	5mcp_abduction_l	5pm_flexion_l	5md_flexion_l
0.005000	-160.147433	-5.066637	-73.570646	-0.064126	-0.123435	-0.109949	126.291734	33.981417	-14.293356	16.447298	14.680536	-33.544159	-55.885668	44.813523	13.999774	66.448797	63.696612	55.372316	5.637217	82.470492	60.721574	57.065136	-5.722305	86.775025	69.098852	57.400629	-14.283375	93.649654	70.840434
0.015000	-160.147433	-5.066637	-73.570646	-0.064262	-0.120765	-0.109397	125.841459	34.181499	-14.896529	16.683120	14.715401	-33.372326	-55.876633	45.370331	14.108942	66.188150	63.920640	55.796421	5.615932	82.267128	60.693597	57.434487	-5.747430	86.524831	69.137257	57.616032	-14.309527	93.462120	70.959308
0.025000	-160.147433	-5.066637	-73.570646	-0.064420	-0.117812	-0.108929	125.602743	34.465524	-15.558079	16.930804	14.870478	-33.049049	-55.770364	46.091052	14.248180	65.699789	64.167773	56.301359	5.592183	81.869995	60.588972	57.850270	-5.779401	86.055979	69.134259	57.849223	-14.354465	93.030693	71.062164
0.035000	-160.147433	-5.066637	-73.570646	-0.064598	-0.114921	-0.108544	125.519963	34.844151	-16.152889	17.156935	15.198182	-32.618647	-55.599860	46.928174	14.398989	64.975366	64.402829	56.845847	5.569697	81.304921	60.407619	58.282236	-5.813726	85.405259	69.074204	58.085392	-14.412812	92.408148	71.122626
0.045000	-160.147433	-5.066637	-73.570646	-0.064779	-0.112471	-0.108224	125.491126	35.289345	-16.567704	17.326235	15.689371	-32.172536	-55.420500	47.761026	14.532553	64.125118	64.583889	57.344010	5.552047	80.672089	60.170172	58.667044	-5.843882	84.690658	68.952778	58.292004	-14.471882	91.729471	71.116294
0.055000	-160.147433	-5.066637	-73.570646	-0.064928	-0.110753	-0.107938	125.401475	35.739787	-16.734347	17.412728	16.274436	-31.813248	-55.285653	48.426609	14.620745	63.336750	64.679533	57.689099	5.541203	80.114040	59.916323	58.923637	-5.864020	84.071762	68.784791	58.423170	-14.516342	91.161006	71.033717
0.065000	-160.147433	-5.066637	-73.570646	-0.065009	-0.109865	-0.107659	125.172193	36.124714	-16.646153	17.406285	16.854186	-31.604983	-55.218462	48.780138	14.648062	62.789335	64.682863	57.794766	5.536891	79.754739	59.692356	58.983497	-5.871480	83.680716	68.601944	58.433204	-14.534918	90.825988	70.887574
0.075000	-160.147433	-5.066637	-73.570646	-0.064995	-0.109684	-0.107376	124.793496	36.394200	-16.352486	17.313606	17.344129	-31.542422	-55.200319	48.757981	14.618086	62.570575	64.614766	57.635364	5.537042	79.644182	59.533930	58.823669	-5.867680	83.563599	68.441158	58.297349	-14.525418	90.751572	70.710199
0.085000	-160.147433	-5.066637	-73.570646	-0.064888	-0.109941	-0.107094	124.319346	36.538327	-15.936654	17.156371	17.704477	-31.559708	-55.185912	48.408773	14.551012	62.644331	64.514133	57.262630	5.538862	79.741874	59.453314	58.483874	-5.856980	83.667864	68.329482	58.029225	-14.495230	90.869095	70.541863
0.095000	-160.147433	-5.066637	-73.570646	-0.064717	-0.110339	-0.106830	123.829466	36.584745	-15.488702	16.968429	17.938149	-31.572416	-55.134000	47.874101	14.474094	62.881600	64.419687	56.787086	5.539897	79.946215	59.437106	58.054728	-5.844387	83.879687	68.273086	57.681650	-14.457265	91.061288	70.414703
0.105000	-160.147433	-5.066637	-73.570646	-0.064528	-0.110668	-0.106596	123.386947	36.578328	-15.083466	16.790436	18.063472	-31.522699	-55.031459	47.328658	14.410617	63.129366	64.353386	56.332787	5.538790	80.147396	59.454365	57.641014	-5.833533	84.082961	68.255748	57.326453	-14.424044	91.221284	70.340230
0.115000	-160.147433	-5.066637	-73.570646	-0.064362	-0.110852	-0.106394	123.016728	36.556512	-14.768563	16.660069	18.086192	-31.400281	-54.895666	46.911768	14.372969	63.275442	64.315025	55.989453	5.535574	80.271799	59.470600	57.319681	-5.825901	84.204680	68.248067	57.023699	-14.403134	91.290200	70.307554
0.125000	-160.147433	-5.066637	-73.570646	-0.064232	-0.110928	-0.106219	122.709274	36.533586	-14.561969	16.600356	17.992150	-31.233401	-54.757972	46.683956	14.362071	63.279433	64.290184	55.785625	5.531455	80.298872	59.461473	57.114597	-5.821289	84.229088	68.223012	56.798279	-14.395698	91.263306	70.293387
0.135000	-160.147433	-5.066637	-73.570646	-0.064126	-0.110990	-0.106071	122.437156	36.499450	-14.456651	16.612442	17.763194	-31.063535	-54.642938	46.624428	14.371558	63.165469	64.264260	55.692169	5.528107	80.251824	59.420653	56.998190	-5.818823	84.185278	68.169112	56.636027	-14.397871	91.174745	70.276987
0.145000	-160.147433	-5.066637	-73.570646	-0.064014	-0.111126	-0.105950	122.171181	36.430294	-14.429245	16.677338	17.401729	-30.922474	-54.556821	46.661459	14.393152	62.992281	64.232213	55.648256	5.526815	80.175393	59.358927	56.914269	-5.817771	84.123261	68.093563	56.498459	-14.403526	91.075234	70.250148
0.155000	-160.147433	-5.066637	-73.570646	-0.063869	-0.111382	-0.105862	121.890578	36.304209	-14.449766	16.765338	16.945549	-30.822263	-54.489269	46.713460	14.420284	62.820966	64.199093	55.593007	5.527879	80.113795	59.295869	56.807181	-5.817809	84.090925	68.014508	56.345240	-14.406964	91.011660	70.217020
0.165000	-160.147433	-5.066637	-73.570646	-0.063677	-0.111759	-0.105812	121.587694	36.114219	-14.489819	16.847681	16.462967	-30.757785	-54.423347	46.720152	14.449067	62.693973	64.174082	55.488114	5.530603	80.095936	59.249175	56.643393	-5.818843	84.118085	67.948956	56.152142	-14.404704	91.012455	70.186572
0.175000	-160.147433	-5.066637	-73.570646	-0.063443	-0.112217	-0.105796	121.268454	35.873530	-14.528006	16.905256	16.030395	-30.715755	-54.346022	46.654900	14.477444	62.628907	64.163862	55.325085	5.533808	80.129971	59.227309	56.418567	-5.820713	84.210220	67.904299	55.917484	-14.396094	91.081291	70.164697
0.185000	-160.147433	-5.066637	-73.570646	-0.063186	-0.112700	-0.105805	120.948829	35.611561	-14.552357	16.931992	15.703777	-30.683550	-54.253496	46.520623	14.503884	62.623550	64.169089	55.118854	5.536541	80.206437	59.228145	56.150986	-5.823000	84.352383	67.876872	55.656946	-14.382797	91.200524	70.150769
0.195000	-160.147433	-5.066637	-73.570646	-0.062931	-0.113161	-0.105823	120.647966	35.363339	-14.560140	16.933153	15.498428	-30.653767	-54.150153	46.337398	14.526626	62.665073	64.184557	54.894329	5.538524	80.306745	59.242460	55.867656	-5.825010	84.520145	67.855939	55.391918	-14.367577	91.342130	70.138763
0.205000	-160.147433	-5.066637	-73.570646	-0.062695	-0.113572	-0.105831	120.380557	35.157383	-14.555611	16.920291	15.387597	-30.623735	-54.043708	46.129890	14.543766	62.736983	64.202103	54.673514	5.540135	80.411996	59.259324	55.591193	-5.825949	84.690939	67.829755	55.138669	-14.353008	91.479899	70.120632
0.215000	-160.147433	-5.066637	-73.570646	-0.062487	-0.113929	-0.105816	120.152072	35.007403	-14.546493	16.905271	15.319775	-30.592252	-53.940624	45.919424	14.553962	62.821406	64.214989	54.468568	5.542014	80.508038	59.270823	55.333418	-5.825197	84.849808	67.791163	54.903727	-14.340730	91.596614	70.090005
0.225000	-160.147433	-5.066637	-73.570646	-0.062307	-0.114240	-0.105769	119.959055	34.910720	-14.540278	16.895711	15.244345	-30.557106	-53.844397	45.721271	14.557202	62.899100	64.222065	54.281917	5.544579	80.586185	59.274695	55.096582	-5.822587	84.988680	67.740919	54.686209	-14.331366	91.684487	70.045195
0.235000	-160.147433	-5.066637	-73.570646	-0.062150	-0.114518	-0.105694	119.793521	34.852966	-14.541501	16.893316	15.131751	-30.515447	-53.756451	45.544944	14.555068	62.951138	64.229323	54.110777	5.547737	80.641860	59.274185	54.878681	-5.818536	85.102944	67.687193	54.483454	-14.324808	91.741775	69.990396
0.245000	-160.147433	-5.066637	-73.570646	-0.062010	-0.114771	-0.105603	119.648214	34.815932	-14.550909	16.895091	14.979589	-30.466036	-53.677534	45.395060	14.550295	62.963657	64.247056	53.952085	5.550945	80.673538	59.275299	54.678138	-5.813953	85.189502	67.641016	54.295190	-14.320474	91.769531	69.934134
0.255000	-160.147433	-5.066637	-73.570646	-0.061880	-0.115000	-0.105511	119.519618	34.784764	-14.566658	16.896125	14.805100	-30.410864	-53.608016	45.271740	14.545796	62.933300	64.283507	53.805050	5.553520	80.682621	59.282909	54.495230	-5.809922	85.247407	67.609959	54.123804	-14.317515	91.770299	69.885430
0.265000	-160.147433	-5.066637	-73.570646	-0.061757	-0.115205	-0.105429	119.407621	34.751779	-14.586575	16.892270	14.631132	-30.354598	-53.547166	45.170983	14.543658	62.869343	64.338933	53.670763	5.555020	80.673547	59.298073	54.330742	-5.807296	85.279470	67.594033	53.971733	-14.315065	91.748273	69.849901
0.275000	-160.147433	-5.066637	-73.570646	-0.061640	-0.115389	-0.105365	119.312876	34.716167	-14.609927	16.881640	14.474172	-30.302313	-53.492457	45.085914	14.544578	62.790130	64.404379	53.550225	5.555457	80.653200	59.318125	54.183984	-5.806388	85.292650	67.586526	53.838823	-14.312534	91.709633	69.828048
0.285000	-160.147433	-5.066637	-73.570646	-0.061528	-0.115556	-0.105317	119.234024	34.680881	-14.637588	16.864765	14.339886	-30.256915	-53.439649	45.009114	14.547935	62.715149	64.466134	53.442719	5.555244	80.629277	59.339008	54.052072	-5.806876	85.296383	67.578793	53.721819	-14.309768	91.662145	69.816117
